<?xml version="1.0" encoding="UTF-8" standalone="no"?>
<svg
   xmlns:dc="http://purl.org/dc/elements/1.1/"
   xmlns:cc="http://creativecommons.org/ns#"
   xmlns:rdf="http://www.w3.org/1999/02/22-rdf-syntax-ns#"
   xmlns:svg="http://www.w3.org/2000/svg"
   xmlns="http://www.w3.org/2000/svg"
   width="36.777084mm"
   height="36.777081mm"
   viewBox="0 0 36.777084 36.777081"
   version="1.1"
   id="svg8">
  <defs
     id="defs2" />
  <metadata
     id="metadata5">
    <rdf:RDF>
      <cc:Work
         rdf:about="">
        <dc:format>image/svg+xml</dc:format>
        <dc:type
           rdf:resource="http://purl.org/dc/dcmitype/StillImage" />
        <dc:title></dc:title>
      </cc:Work>
    </rdf:RDF>
  </metadata>
  <g
     id="layer1"
     transform="translate(-122.70998,-169.48973)">
    <rect
       style="fill:#0000ff;stroke-width:0.274031"
       id="rect951"
       width="36.77462"
       height="36.77879"
       x="-159.4846"
       y="-206.26767"
       transform="scale(-1)" />
    <g
       id="g30"
       transform="translate(-0.28705631,3.3983444)">
      <path
         style="opacity:1;fill:#00ff00;fill-opacity:1;fill-rule:nonzero;stroke:none;stroke-width:42.0953;stroke-linecap:butt;stroke-linejoin:bevel;stroke-miterlimit:4;stroke-dasharray:none;stroke-opacity:1;paint-order:markers fill stroke"
         d="m 48.765625,15.433594 c -0.640255,0.0027 -1.312143,0.02766 -2.019531,0.07226 -7.229783,0.455925 -11.051485,3.523082 -6.972656,5.50586 1.747011,0.952554 1.224609,2.622481 1.224609,3.43164 0,3.587906 -22.898815,53.689712 -29.521485,64.591797 -4.4152323,7.268259 -4.111386,9.491446 1.179688,8.632813 1.992348,-0.32315 5.364694,-1.741156 7.494141,-3.150391 h 0.002 c 5.474872,-3.623093 8.76592,-9.454896 17.052734,-30.224609 3.995395,-10.013896 7.927017,-19.558443 8.275391,-18.894531 0.348359,0.663874 0.559878,6.926551 0.93164,11.601562 1.360657,17.110526 5.512881,31.566082 10.794922,37.582031 3.403994,3.876926 5.696197,4.287738 8.240235,1.476563 0.966349,-1.067792 5.727731,-11.171349 10.580078,-22.453125 4.852346,-11.281777 9.481812,-22.078514 10.05664,-23.066407 0.787994,-1.35428 0.86838,1.052371 0.90625,7.460938 0.108095,18.311924 3.3502,29.5686 10.208985,35.439453 6.323604,5.412813 11.445074,5.209797 17.550784,-0.691406 3.78531,-3.658507 4.0559,-5.91225 1.15039,-9.589844 L 113.80078,80.5 C 101.68569,57.142028 105.96623,40.854547 105.9668,29.310547 l 0.34765,-5.3125 c 0.32958,-2.783471 0.34502,-5.721536 0.0332,-6.529297 -0.78728,-2.051565 -9.327448,-1.923488 -13.794926,0.207031 -4.371477,2.084636 -8.693756,10.102066 -17.59375,32.632813 -3.434381,8.694349 -6.599124,15.444359 -7.033203,15 C 67.49174,64.864272 65.978563,56.590322 64.564453,46.921875 60.713445,20.592092 58.369448,15.392604 48.765625,15.433594 Z"
         transform="matrix(0.26458333,0,0,0.26458333,122.70998,169.48973)"
         id="rect988" />
      <g
         id="g957"
         transform="translate(60.43039,43.792662)">
        <path
           id="path961"
           style="fill:#00ff00;fill-opacity:1;stroke-width:0.264583"
           d="m 92.863281,132.31641 c -1.419677,-0.004 -2.851385,0.52795 -3.958984,1.33593 -1.107483,0.80791 -1.931641,1.92105 -1.931641,3.15625 0,0.81169 0.313887,1.48676 0.894532,1.77539 0.587911,0.29225 1.309991,0.0808 1.83789,-0.47656 0.426268,-0.45011 0.773073,-0.63807 0.853516,-0.65234 0.06288,-0.0112 0.03839,-0.0152 0.08789,0.0137 0.03415,0.02 0.114012,0.0895 0.205078,0.22852 0.173247,0.2644 0.185304,0.97777 -0.269531,2.08593 -0.455627,1.11009 -1.314311,2.57322 -2.53125,4.32032 -0.465181,0.66784 -0.803103,1.15579 -1.003906,1.57617 -0.09906,0.20734 -0.179324,0.41803 -0.179687,0.65429 -4.08e-4,0.26539 0.121803,0.51213 0.333984,0.67383 0.367145,0.2798 0.823553,0.29848 1.43164,0.32031 0.616315,0.0222 1.427215,0.008 2.482422,0.008 1.601607,0 2.526021,-0.0584 2.964844,-0.0273 0.218126,0.0155 0.29805,0.0634 0.28125,0.0508 -0.0024,-0.002 0.0065,-0.009 0.04883,0.14648 0.06786,0.24873 0.174162,0.47205 0.351563,0.64453 0.186808,0.18164 0.435323,0.27533 0.685547,0.26563 0.46396,-0.018 0.830461,-0.32055 1.144531,-0.6875 0.635383,-0.74235 1.170822,-1.97865 1.294922,-3.42774 a 0.27099488,0.27099488 0 0 0 0,-0.004 c 0.03854,-0.47353 0.05565,-1.33041 -0.199219,-2.01368 -0.06345,-0.17008 -0.148542,-0.34285 -0.287109,-0.49218 -0.145993,-0.15735 -0.354436,-0.28149 -0.605469,-0.29883 -0.467744,-0.0323 -0.86638,0.26695 -1.271484,0.73437 -0.379383,0.40825 -0.706435,0.60025 -0.839844,0.63867 -0.03105,0.009 -0.01926,0.005 -0.03125,0.006 -0.0039,-0.0229 -0.0521,-0.22671 0.03516,-0.53711 0.094,-0.33438 0.303657,-0.77803 0.660156,-1.26367 0.963396,-1.31241 1.566887,-2.5579 1.775391,-3.73633 0.208767,-1.17991 0.0019,-2.29738 -0.630859,-3.23632 -0.42065,-0.6242 -0.891127,-1.09196 -1.490235,-1.38282 -0.597983,-0.2903 -1.290922,-0.39581 -2.138672,-0.39843 z" />
        <path
           id="path961-6"
           style="fill:#ff0000;fill-opacity:1;stroke-width:0.264583"
           d="m 92.408203,133.36719 c -1.772302,0.2148 -3.69312,1.19636 -4.329081,2.9583 -0.135384,0.44201 -0.158478,1.35851 0.467753,1.35224 0.735396,-0.41481 1.306877,-1.44088 2.291016,-1.22656 1.18361,0.34724 1.36333,1.84845 0.99414,2.86133 -0.771992,2.52505 -2.503328,4.57989 -3.853515,6.80078 0.196261,0.34154 1.113672,0.11648 1.577678,0.1956 1.661369,0.062 3.335542,-0.12942 4.988728,0.0329 0.508253,0.0868 0.794693,0.55821 0.910156,1.02148 1.140848,-0.94899 1.48432,-2.60526 1.396912,-4.03295 0.0095,-0.46427 -0.171503,-1.11507 -0.57074,-0.40845 -0.547745,0.63432 -1.630048,1.42355 -2.388672,0.67382 -0.711306,-0.9905 0.0185,-2.26055 0.619141,-3.125 1.094164,-1.51495 2.21118,-3.53951 1.346183,-5.41324 -0.469133,-1.08505 -1.580799,-1.77994 -2.765073,-1.70253 -0.228473,-0.02 -0.456216,0.004 -0.684626,0.0123 z" />
      </g>
    </g>
  </g>
</svg>
