<?xml version="1.0" encoding="UTF-8" standalone="no"?>
<svg
   xmlns:dc="http://purl.org/dc/elements/1.1/"
   xmlns:cc="http://creativecommons.org/ns#"
   xmlns:rdf="http://www.w3.org/1999/02/22-rdf-syntax-ns#"
   xmlns:svg="http://www.w3.org/2000/svg"
   xmlns="http://www.w3.org/2000/svg"
   width="36.777084mm"
   height="36.777081mm"
   viewBox="0 0 36.777084 36.777081"
   version="1.1"
   id="svg8">
  <defs
     id="defs2" />
  <metadata
     id="metadata5">
    <rdf:RDF>
      <cc:Work
         rdf:about="">
        <dc:format>image/svg+xml</dc:format>
        <dc:type
           rdf:resource="http://purl.org/dc/dcmitype/StillImage" />
        <dc:title></dc:title>
      </cc:Work>
    </rdf:RDF>
  </metadata>
  <g
     id="layer1"
     transform="translate(-122.70998,-169.48973)">
    <rect
       style="fill:#0000ff;stroke-width:0.274031"
       id="rect951"
       width="36.77462"
       height="36.77879"
       x="-159.4846"
       y="-206.26767"
       transform="scale(-1)" />
    <g
       id="g30"
       transform="translate(-0.28705631,3.3983444)">
      <path
         style="opacity:1;fill:#00ff00;fill-opacity:1;fill-rule:nonzero;stroke:none;stroke-width:42.0953;stroke-linecap:butt;stroke-linejoin:bevel;stroke-miterlimit:4;stroke-dasharray:none;stroke-opacity:1;paint-order:markers fill stroke"
         d="m 48.765625,15.433594 c -0.640255,0.0027 -1.312143,0.02766 -2.019531,0.07226 -7.229783,0.455925 -11.051485,3.523082 -6.972656,5.50586 1.747011,0.952554 1.224609,2.622481 1.224609,3.43164 0,3.587906 -22.898815,53.689712 -29.521485,64.591797 -4.4152323,7.268259 -4.111386,9.491446 1.179688,8.632813 1.992348,-0.32315 5.364694,-1.741156 7.494141,-3.150391 h 0.002 c 5.474872,-3.623093 8.76592,-9.454896 17.052734,-30.224609 3.995395,-10.013896 7.927017,-19.558443 8.275391,-18.894531 0.348359,0.663874 0.559878,6.926551 0.93164,11.601562 1.360657,17.110526 5.512881,31.566082 10.794922,37.582031 3.403994,3.876926 5.696197,4.287738 8.240235,1.476563 0.966349,-1.067792 5.727731,-11.171349 10.580078,-22.453125 4.852346,-11.281777 9.481812,-22.078514 10.05664,-23.066407 0.787994,-1.35428 0.86838,1.052371 0.90625,7.460938 0.108095,18.311924 3.3502,29.5686 10.208985,35.439453 6.323604,5.412813 11.445074,5.209797 17.550784,-0.691406 3.78531,-3.658507 4.0559,-5.91225 1.15039,-9.589844 L 113.80078,80.5 C 101.68569,57.142028 105.96623,40.854547 105.9668,29.310547 l 0.34765,-5.3125 c 0.32958,-2.783471 0.34502,-5.721536 0.0332,-6.529297 -0.78728,-2.051565 -9.327448,-1.923488 -13.794926,0.207031 -4.371477,2.084636 -8.693756,10.102066 -17.59375,32.632813 -3.434381,8.694349 -6.599124,15.444359 -7.033203,15 C 67.49174,64.864272 65.978563,56.590322 64.564453,46.921875 60.713445,20.592092 58.369448,15.392604 48.765625,15.433594 Z"
         transform="matrix(0.26458333,0,0,0.26458333,122.70998,169.48973)"
         id="rect988" />
      <g
         id="g957"
         transform="translate(60.43039,43.792662)">
        <path
           style="fill:#ff0000;fill-opacity:1;stroke-width:0.264583"
           d="m 94.893489,147.3738 c -0.21263,-0.77937 -0.60053,-0.53763 -3.77862,-0.53763 -4.23812,0 -4.51001,0.21718 -2.65413,-2.44723 2.45703,-3.52744 3.4906,-5.92399 2.80851,-6.96499 -0.4719,-0.72022 -1.01247,-0.62449 -1.92709,0.34127 -0.84859,0.89603 -1.86894,0.41779 -1.86894,-0.95587 0,-2.01205 2.80561,-3.99992 5.38938,-3.9922 1.61399,0.005 2.43642,0.4039 3.21581,1.56044 1.12027,1.66236 0.73145,3.8557 -1.134,6.39695 -1.54383,2.10311 -0.73385,3.61259 0.95572,1.78109 1.46292,-1.68793 1.55952,0.86073 1.49098,1.70283 -0.2309,2.69619 -2.07701,4.65709 -2.49762,3.11534 z"
           id="path961" />
      </g>
    </g>
  </g>
</svg>
