<?xml version="1.0" encoding="UTF-8" standalone="no"?>
<svg
   xmlns:dc="http://purl.org/dc/elements/1.1/"
   xmlns:cc="http://creativecommons.org/ns#"
   xmlns:rdf="http://www.w3.org/1999/02/22-rdf-syntax-ns#"
   xmlns:svg="http://www.w3.org/2000/svg"
   xmlns="http://www.w3.org/2000/svg"
   width="36.777084mm"
   height="36.777081mm"
   viewBox="0 0 36.777084 36.777081"
   version="1.1"
   id="svg8">
  <defs
     id="defs2" />
  <metadata
     id="metadata5">
    <rdf:RDF>
      <cc:Work
         rdf:about="">
        <dc:format>image/svg+xml</dc:format>
        <dc:type
           rdf:resource="http://purl.org/dc/dcmitype/StillImage" />
        <dc:title></dc:title>
      </cc:Work>
    </rdf:RDF>
  </metadata>
  <g
     id="layer1"
     transform="translate(-122.70998,-169.48973)">
    <rect
       style="fill:#0000ff;stroke-width:0.274031"
       id="rect951"
       width="36.77462"
       height="36.77879"
       x="-159.4846"
       y="-206.26767"
       transform="scale(-1)" />
    <g
       id="g30"
       transform="translate(-0.28705631,3.3983444)">
      <path
         style="opacity:1;fill:#00ff00;fill-opacity:1;fill-rule:nonzero;stroke:none;stroke-width:12.7412;stroke-linecap:butt;stroke-linejoin:bevel;stroke-miterlimit:4;stroke-dasharray:none;stroke-opacity:1;paint-order:markers fill stroke"
         d="m 137.03665,172.00296 c -0.19379,8.3e-4 -0.39715,0.008 -0.61127,0.0219 -2.18827,0.138 -3.345,1.06635 -2.11044,1.66649 0.52877,0.28831 0.37066,0.79375 0.37066,1.03866 0,1.08597 -6.93089,16.25051 -8.9354,19.55029 -1.33637,2.19992 -1.24441,2.87282 0.35706,2.61294 0.60303,-0.0978 1.62376,-0.52702 2.26828,-0.95356 h 6.1e-4 c 1.6571,-1.09661 2.65322,-2.86174 5.16143,-9.1482 1.20931,-3.03095 2.39931,-5.91985 2.50475,-5.7189 0.10547,0.20094 0.16946,2.09649 0.28198,3.5115 0.41184,5.17892 1.66862,9.55425 3.26735,11.37512 1.03031,1.17345 1.72409,1.29778 2.4941,0.44691 0.29249,-0.32319 1.73365,-3.38128 3.20233,-6.79598 1.46868,-3.41471 2.8699,-6.68261 3.04389,-6.98162 0.2385,-0.4099 0.26282,0.31853 0.27429,2.25824 0.0327,5.54255 1.01402,8.94966 3.09,10.72662 1.91399,1.63832 3.46413,1.57687 5.31218,-0.20927 1.14571,-1.10734 1.22761,-1.78949 0.34819,-2.90261 l -0.63551,-0.80456 c -3.66694,-7.06986 -2.37133,-11.99967 -2.37116,-15.49374 l 0.10525,-1.60796 c 0.0998,-0.84249 0.10444,-1.73176 0.0103,-1.97625 -0.23828,-0.62096 -2.82318,-0.58219 -4.17537,0.0627 -1.32313,0.63097 -2.63137,3.05764 -5.32517,9.87712 -1.0395,2.63156 -1.99739,4.67461 -2.12878,4.54012 -0.13136,-0.13449 -0.58937,-2.6388 -1.01738,-5.56519 -1.1656,-7.96937 -1.87507,-9.54311 -4.7819,-9.53071 z"
         id="rect988" />
    </g>
  </g>
</svg>
