<?xml version="1.0" encoding="UTF-8" standalone="no"?>
<svg
   xmlns:dc="http://purl.org/dc/elements/1.1/"
   xmlns:cc="http://creativecommons.org/ns#"
   xmlns:rdf="http://www.w3.org/1999/02/22-rdf-syntax-ns#"
   xmlns:svg="http://www.w3.org/2000/svg"
   xmlns="http://www.w3.org/2000/svg"
   width="36.777084mm"
   height="36.777081mm"
   viewBox="0 0 36.777084 36.777081"
   version="1.1"
   id="svg8">
  <defs
     id="defs2" />
  <metadata
     id="metadata5">
    <rdf:RDF>
      <cc:Work
         rdf:about="">
        <dc:format>image/svg+xml</dc:format>
        <dc:type
           rdf:resource="http://purl.org/dc/dcmitype/StillImage" />
        <dc:title></dc:title>
      </cc:Work>
    </rdf:RDF>
  </metadata>
  <g
     id="layer1"
     transform="translate(-122.70998,-169.48973)">
    <rect
       style="fill:#0000ff;stroke-width:0.274031"
       id="rect951"
       width="36.77462"
       height="36.77879"
       x="-159.4846"
       y="-206.26767"
       transform="scale(-1)" />
    <path
       id="rect988"
       style="opacity:1;fill:#00ff00;fill-opacity:1;fill-rule:nonzero;stroke:none;stroke-width:42.0953;stroke-linecap:butt;stroke-linejoin:bevel;stroke-miterlimit:4;stroke-dasharray:none;stroke-opacity:1;paint-order:markers fill stroke"
       d="M 48.765625 15.433594 C 48.12537 15.436326 47.453482 15.461252 46.746094 15.505859 C 39.516311 15.961784 35.694609 19.028941 39.773438 21.011719 C 41.520449 21.964273 40.998047 23.6342 40.998047 24.443359 C 40.998047 28.031265 18.099232 78.133071 11.476562 89.035156 C 7.0613297 96.303415 7.365176 98.526602 12.65625 97.667969 C 14.648598 97.344819 18.020944 95.926813 20.150391 94.517578 L 20.152344 94.517578 C 25.627216 90.894485 28.918264 85.062682 37.205078 64.292969 C 41.200473 54.279073 45.132095 44.734526 45.480469 45.398438 C 45.828828 46.062312 46.040347 52.324989 46.412109 57 C 47.772766 74.110526 51.92499 88.566082 57.207031 94.582031 C 60.611025 98.458957 62.903228 98.869769 65.447266 96.058594 C 66.413615 94.990802 71.174997 84.887245 76.027344 73.605469 C 80.87969 62.323692 85.509156 51.526955 86.083984 50.539062 C 86.871978 49.184782 86.952364 51.591433 86.990234 58 C 87.098329 76.311924 90.340434 87.5686 97.199219 93.439453 C 103.52282 98.852266 108.64429 98.64925 114.75 92.748047 C 118.53531 89.08954 118.8059 86.835797 115.90039 83.158203 L 113.80078 80.5 C 101.68569 57.142028 105.96623 40.854547 105.9668 29.310547 L 106.31445 23.998047 C 106.64403 21.214576 106.65947 18.276511 106.34766 17.46875 C 105.56038 15.417185 97.020212 15.545262 92.552734 17.675781 C 88.181257 19.760417 83.858978 27.777847 74.958984 50.308594 C 71.524603 59.002943 68.35986 65.752953 67.925781 65.308594 C 67.49174 64.864272 65.978563 56.590322 64.564453 46.921875 C 60.713445 20.592092 58.369448 15.392604 48.765625 15.433594 z M 81 99 C 75.657335 99 74 100.25987 74 104.32422 C 74 106.56295 75.173266 108.31374 79 111.78516 C 84.893039 117.13111 85.550038 120 80.882812 120 C 78.097679 120 77.817054 119.73431 78.244141 117.5 C 78.644771 115.40425 78.340742 115 76.361328 115 C 74.356591 115 74 115.49913 74 118.30078 C 74 123.04016 75.590688 124.13313 81.992188 123.79297 C 87.283602 123.82698 87.470021 123.96056 87.796875 118.94531 C 88.081851 114.57115 87.894384 114.22416 83.046875 110.13672 C 77.221754 105.22492 76.583622 103 81 103 C 83.533342 103 84 103.38891 84 105.5 C 84 107.33334 84.533317 108 86 108 C 87.595943 108 88 107.33253 88 104.69922 C 88 100.25465 86.458243 99 81 99 z M 93.208984 99 C 91.393791 99 90.940448 99.403718 91.402344 100.60742 C 91.741367 101.49134 93.175557 106.7722 94.587891 112.34375 C 96.999872 121.85898 97.090691 123.80368 95.439453 130.38281 C 94.889532 132.57377 95.1203 133 96.853516 133 C 98.40059 133 99.176906 132.05278 99.925781 129.25 C 101.17964 124.55734 107 100.02644 107 99.435547 C 107 99.195547 106.12199 99 105.04883 99 C 103.41872 99 102.81263 100.3242 101.36719 107.05078 C 100.41448 111.48424 99.327448 114.51746 98.947266 113.80078 C 98.567536 113.0849 97.666711 109.46248 96.945312 105.75 C 95.756916 99.634271 95.404777 99 93.208984 99 z M 117 99 C 111.5692 99 110 100.25741 110 104.60742 C 110 107.23083 110.90968 108.57541 115 112 C 120.83646 116.88659 121.61484 120 117 120 C 114.4667 120 114 119.61113 114 117.5 C 114 115.66666 113.46665 115 112 115 C 110.45689 115 110 115.66643 110 117.91797 C 110 123.57377 110.68146 124.11671 117.375 123.79492 C 123.74441 123.50201 123.405 124.96075 123.79883 118.89453 C 124.08947 114.41575 123.95908 114.18406 119.04883 110.43945 C 113.2036 105.98176 112.38244 103 117 103 C 119.53334 103 120 103.38891 120 105.5 C 120 107.33334 120.53332 108 122 108 C 123.59594 108 124 107.33253 124 104.69922 C 124 100.25465 122.45824 99 117 99 z "
       transform="matrix(0.26458333,0,0,0.26458333,122.70998,169.48973)" />
    <g
       id="g957"
       transform="translate(60.43039,43.792662)">
      <path
         style="fill:#ff0000;fill-opacity:1;stroke-width:0.264583"
         d="m 94.893489,147.3738 c -0.21263,-0.77937 -0.60053,-0.53763 -3.77862,-0.53763 -4.23812,0 -4.51001,0.21718 -2.65413,-2.44723 2.45703,-3.52744 3.4906,-5.92399 2.80851,-6.96499 -0.4719,-0.72022 -1.01247,-0.62449 -1.92709,0.34127 -0.84859,0.89603 -1.86894,0.41779 -1.86894,-0.95587 0,-2.01205 2.80561,-3.99992 5.38938,-3.9922 1.61399,0.005 2.43642,0.4039 3.21581,1.56044 1.12027,1.66236 0.73145,3.8557 -1.134,6.39695 -1.54383,2.10311 -0.73385,3.61259 0.95572,1.78109 1.46292,-1.68793 1.55952,0.86073 1.49098,1.70283 -0.2309,2.69619 -2.07701,4.65709 -2.49762,3.11534 z"
         id="path961" />
    </g>
  </g>
</svg>
